<svg width="40" height="40" viewBox="0 0 40 40" fill="none" xmlns="http://www.w3.org/2000/svg">
<path style=" stroke:none;fill-rule:nonzero;"
              d="M 34.851562 5.777344 C 34.851562 5.773438 34.851562 5.769531 34.847656 5.765625 C 34.839844 5.6875 34.816406 5.609375 34.785156 5.535156 C 34.773438 5.515625 34.765625 5.5 34.757812 5.480469 C 34.742188 5.460938 34.734375 5.4375 34.722656 5.414062 C 34.695312 5.378906 34.664062 5.34375 34.632812 5.3125 C 34.621094 5.304688 34.617188 5.296875 34.609375 5.289062 C 34.554688 5.238281 34.484375 5.199219 34.414062 5.164062 C 34.394531 5.160156 34.375 5.152344 34.359375 5.144531 C 34.28125 5.117188 34.199219 5.101562 34.117188 5.101562 L 27.148438 5.101562 C 27.050781 5.101562 26.960938 5.121094 26.875 5.15625 C 26.851562 5.164062 26.832031 5.179688 26.804688 5.191406 C 26.742188 5.226562 26.6875 5.261719 26.636719 5.308594 C 26.628906 5.320312 26.609375 5.328125 26.597656 5.339844 C 26.585938 5.351562 26.585938 5.363281 26.582031 5.371094 C 26.53125 5.429688 26.492188 5.496094 26.460938 5.570312 C 26.457031 5.585938 26.445312 5.597656 26.441406 5.613281 C 26.441406 5.617188 26.4375 5.617188 26.4375 5.621094 L 20 26.613281 L 13.558594 5.621094 C 13.558594 5.617188 13.554688 5.617188 13.554688 5.613281 C 13.550781 5.597656 13.539062 5.585938 13.535156 5.570312 C 13.507812 5.5 13.46875 5.433594 13.417969 5.371094 C 13.410156 5.363281 13.40625 5.351562 13.398438 5.339844 C 13.386719 5.328125 13.367188 5.320312 13.359375 5.308594 C 13.308594 5.261719 13.257812 5.222656 13.195312 5.191406 C 13.171875 5.179688 13.148438 5.164062 13.125 5.15625 C 13.039062 5.121094 12.949219 5.101562 12.851562 5.101562 L 5.882812 5.101562 C 5.800781 5.101562 5.722656 5.117188 5.640625 5.144531 C 5.625 5.148438 5.605469 5.15625 5.585938 5.164062 C 5.511719 5.199219 5.445312 5.238281 5.386719 5.289062 C 5.378906 5.300781 5.375 5.304688 5.367188 5.3125 C 5.335938 5.347656 5.304688 5.378906 5.273438 5.414062 C 5.257812 5.4375 5.253906 5.460938 5.242188 5.480469 C 5.230469 5.5 5.21875 5.515625 5.210938 5.535156 C 5.179688 5.609375 5.160156 5.683594 5.148438 5.765625 C 5.148438 5.769531 5.144531 5.773438 5.144531 5.777344 L 2.503906 37.015625 C 2.484375 37.222656 2.554688 37.425781 2.695312 37.578125 C 2.835938 37.726562 3.035156 37.820312 3.238281 37.820312 L 9.773438 37.820312 C 10.152344 37.820312 10.46875 37.53125 10.507812 37.148438 L 11.820312 23.835938 L 16.867188 37.335938 C 16.867188 37.339844 16.871094 37.34375 16.875 37.351562 C 16.898438 37.410156 16.929688 37.46875 16.964844 37.519531 L 16.976562 37.527344 C 16.980469 37.539062 16.996094 37.550781 17.003906 37.558594 C 17.039062 37.601562 17.078125 37.632812 17.117188 37.667969 L 17.175781 37.707031 C 17.214844 37.730469 17.257812 37.75 17.300781 37.769531 C 17.382812 37.800781 17.46875 37.820312 17.558594 37.820312 L 22.4375 37.820312 C 22.507812 37.820312 22.574219 37.808594 22.640625 37.789062 C 22.660156 37.785156 22.679688 37.777344 22.695312 37.769531 C 22.742188 37.753906 22.785156 37.730469 22.820312 37.707031 C 22.839844 37.695312 22.859375 37.679688 22.875 37.667969 C 22.917969 37.636719 22.953125 37.601562 22.992188 37.558594 C 23 37.546875 23.011719 37.539062 23.023438 37.527344 C 23.023438 37.523438 23.027344 37.523438 23.03125 37.519531 C 23.070312 37.464844 23.101562 37.410156 23.125 37.351562 C 23.125 37.347656 23.128906 37.34375 23.132812 37.335938 L 28.179688 23.835938 L 29.492188 37.152344 C 29.527344 37.53125 29.84375 37.820312 30.226562 37.820312 L 36.757812 37.820312 C 36.960938 37.820312 37.164062 37.734375 37.300781 37.582031 C 37.441406 37.429688 37.507812 37.226562 37.492188 37.019531 Z M 34.851562 5.777344 " fill="url(#paint0_linear)"/>
    <defs>
        <linearGradient id="paint0_linear" x1="1.94192" y1="2.89955" x2="34.7772" y2="39.7345"
                        gradientUnits="userSpaceOnUse">
            <stop offset="0.02404" stop-color="#4288D4"/>
            <stop offset="0.32404" stop-color="#2D63FF"/>
            <stop offset="0.90739" stop-color="#7740FF"/>
        </linearGradient>
    </defs>
</svg>
