<?xml version="1.0" encoding="UTF-8"?>
<svg xmlns="http://www.w3.org/2000/svg" xmlns:xlink="http://www.w3.org/1999/xlink" width="16px" height="16px" viewBox="0 0 16 16" version="1.1">
<g id="surface1">
<path style=" stroke:none;fill-rule:nonzero;fill:#AFB1B3;fill-opacity:1;" d="M 13 10 L 10 10 L 10 9 L 13 9 Z M 13 10 "/>
<path style=" stroke:none;fill-rule:nonzero;fill:#AFB1B3;fill-opacity:1;" d="M 15 14 L 12 14 L 12 13 L 15 13 Z M 15 14 "/>
<path style=" stroke:none;fill-rule:nonzero;fill:#AFB1B3;fill-opacity:1;" d="M 14 12 L 11 12 L 11 11 L 14 11 Z M 14 12 "/>
<path style=" stroke:none;fill-rule:nonzero;fill:#AFB1B3;fill-opacity:1;" d="M 8.5 10 C 8.496094 9.140625 8.039062 8.351562 7.300781 7.914062 L 11 1.5 L 10.132812 1 L 6.347656 7.5625 C 5.402344 7.351562 4.414062 7.636719 3.726562 8.3125 C 1.851562 10.121094 2 14.339844 2.003906 14.519531 C 2.015625 14.789062 2.238281 15 2.503906 15 L 10 15 C 10.214844 15 10.40625 14.863281 10.476562 14.65625 C 10.542969 14.453125 10.472656 14.230469 10.300781 14.101562 C 8.53125 12.773438 8.5 10.027344 8.5 10 Z M 5.964844 8.5 C 6.796875 8.507812 7.472656 9.167969 7.503906 10 C 7.503906 10.019531 7.503906 10.105469 7.511719 10.234375 L 4.5625 8.921875 C 4.953125 8.597656 5.460938 8.445312 5.964844 8.5 Z M 7.726562 14 C 7.324219 13.59375 7.070312 13.066406 7 12.5 L 6 12.5 C 6.035156 13.03125 6.203125 13.546875 6.484375 14 L 5.371094 14 C 5.167969 13.351562 5.042969 12.679688 5 12 L 4 12 C 4.03125 12.675781 4.144531 13.347656 4.332031 14 L 3 14 C 3.015625 13.082031 3.144531 11.054688 3.902344 9.722656 L 7.667969 11.398438 C 7.847656 12.339844 8.234375 13.226562 8.796875 14 Z M 7.726562 14 "/>
</g>
</svg>
