<?xml version="1.0" encoding="UTF-8"?>
<svg xmlns="http://www.w3.org/2000/svg" xmlns:xlink="http://www.w3.org/1999/xlink" width="16px" height="16px" viewBox="0 0 16 16" version="1.1">
<g id="surface1">
<path style=" stroke:none;fill-rule:nonzero;fill:#AFB1B3;fill-opacity:1;" d="M 1.332031 4 C 1.332031 3.632812 1.632812 3.332031 2 3.332031 L 14 3.332031 C 14.367188 3.332031 14.667969 3.632812 14.667969 4 C 14.667969 4.367188 14.367188 4.667969 14 4.667969 L 2 4.667969 C 1.632812 4.667969 1.332031 4.367188 1.332031 4 Z M 1.332031 4 "/>
<path style=" stroke:none;fill-rule:nonzero;fill:#AFB1B3;fill-opacity:1;" d="M 1.332031 8 C 1.332031 7.632812 1.632812 7.332031 2 7.332031 L 14 7.332031 C 14.367188 7.332031 14.667969 7.632812 14.667969 8 C 14.667969 8.367188 14.367188 8.667969 14 8.667969 L 2 8.667969 C 1.632812 8.667969 1.332031 8.367188 1.332031 8 Z M 1.332031 8 "/>
<path style=" stroke:none;fill-rule:nonzero;fill:#AFB1B3;fill-opacity:1;" d="M 2 11.332031 C 1.632812 11.332031 1.332031 11.632812 1.332031 12 C 1.332031 12.367188 1.632812 12.667969 2 12.667969 L 14 12.667969 C 14.367188 12.667969 14.667969 12.367188 14.667969 12 C 14.667969 11.632812 14.367188 11.332031 14 11.332031 Z M 2 11.332031 "/>
</g>
</svg>
