<?xml version="1.0" encoding="UTF-8"?>
<svg xmlns="http://www.w3.org/2000/svg" xmlns:xlink="http://www.w3.org/1999/xlink" width="13px" height="13px" viewBox="0 0 13 13" version="1.1">
<g id="surface1">
<path style=" stroke:none;fill-rule:nonzero;fill:#AFB1B3;fill-opacity:1;" d="M 1.082031 2.167969 L 5.957031 2.167969 L 5.957031 2.707031 L 1.625 2.707031 L 1.625 10.832031 L 5.957031 10.832031 L 5.957031 11.375 L 1.082031 11.375 Z M 6.5 12.457031 L 7.042969 12.457031 L 7.042969 1.082031 L 6.5 1.082031 Z M 4.488281 5.570312 L 4.179688 5.261719 L 2.671875 6.769531 L 4.179688 8.277344 L 4.488281 7.972656 L 3.554688 7.042969 L 5.957031 7.042969 L 5.957031 6.5 L 3.554688 6.5 Z M 7.582031 6.5 L 9.792969 6.5 L 8.960938 5.664062 L 9.457031 5.167969 L 11.0625 6.769531 L 9.457031 8.375 L 8.960938 7.875 L 9.792969 7.042969 L 7.582031 7.042969 L 7.582031 11.375 L 12.457031 11.375 L 12.457031 2.167969 L 7.582031 2.167969 Z M 7.582031 6.5 "/>
</g>
</svg>
