<?xml version="1.0" encoding="UTF-8"?>
<svg xmlns="http://www.w3.org/2000/svg" width="13" height="13" viewBox="0 0 13 13">
    <g id="surface1">
        <path fill="#6E7072" fill-opacity="1" stroke="#6E7072" stroke-width="0.2"
              stroke-linejoin="round" stroke-linecap="round" fill-rule="nonzero"
              d="M 1.332031 2.167969 L 5.707031 2.167969 Q 5.957031 2.167969 5.957031 2.417969
         L 5.957031 2.707031 L 1.875 2.707031 Q 1.625 2.707031 1.625 2.957031
         L 1.625 10.582031 Q 1.625 10.832031 1.875 10.832031 L 5.957031 10.832031
         L 5.957031 11.125 Q 5.957031 11.375 5.707031 11.375 L 1.332031 11.375
         Q 1.082031 11.375 1.082031 11.125 L 1.082031 2.417969
         Q 1.082031 2.167969 1.332031 2.167969 Z
         M 6.625 1.082031 L 6.917969 1.082031 Q 7.042969 1.082031 7.042969 1.207031
         L 7.042969 12.332031 Q 7.042969 12.457031 6.917969 12.457031 L 6.625 12.457031
         Q 6.5 12.457031 6.5 12.332031 L 6.5 1.207031 Q 6.5 1.082031 6.625 1.082031 Z
         M 7.832031 2.167969 L 12.207031 2.167969 Q 12.457031 2.167969 12.457031 2.417969
         L 12.457031 11.125 Q 12.457031 11.375 12.207031 11.375 L 7.832031 11.375
         Q 7.582031 11.375 7.582031 11.125 L 7.582031 2.417969
         Q 7.582031 2.167969 7.832031 2.167969 Z"/>
        <path fill="none" stroke="#6E7072" stroke-width="0.9" stroke-linecap="round"
              stroke-linejoin="round" d="M 4.238281 5.449219 L 2.980469 6.769531 L 4.238281 8.089844"/>
        <path fill="none" stroke="#F2F2F2" stroke-width="0.9" stroke-linecap="round"
              stroke-linejoin="round" d="M 9.399219 5.449219 L 10.657031 6.769531 L 9.399219 8.089844"/>
    </g>
</svg>
