<?xml version="1.0" encoding="UTF-8"?>
<svg xmlns="http://www.w3.org/2000/svg" xmlns:xlink="http://www.w3.org/1999/xlink" width="16px" height="16px" viewBox="0 0 16 16" version="1.1">
<g id="surface1">
<path style=" stroke:none;fill-rule:evenodd;fill:#3592C4;fill-opacity:1;" d="M 3.222656 3.738281 L 5.480469 6.007812 L 7.699219 3.785156 L 7 3.085938 L 5.988281 4.089844 L 5.980469 2.492188 C 5.976562 2.210938 6.199219 1.976562 6.480469 1.964844 L 8 1.964844 L 8 1 L 6.480469 1 C 6.085938 1 5.707031 1.15625 5.429688 1.4375 C 5.152344 1.714844 5 2.09375 5 2.488281 L 5 4.101562 L 3.925781 3.03125 Z M 9.890625 5.53125 L 9.902344 5.53125 C 10.085938 5.84375 10.351562 6 10.707031 6 C 11.101562 6 11.414062 5.832031 11.648438 5.496094 C 11.882812 5.160156 12 4.71875 12 4.164062 C 12 3.652344 11.898438 3.25 11.699219 2.957031 C 11.496094 2.660156 11.210938 2.515625 10.839844 2.515625 C 10.433594 2.515625 10.121094 2.710938 9.902344 3.097656 L 9.890625 3.097656 L 9.890625 1 L 9 1 L 9 5.917969 L 9.890625 5.917969 Z M 9.875 4.472656 L 9.875 4.132812 C 9.875 3.882812 9.933594 3.683594 10.050781 3.53125 C 10.152344 3.386719 10.320312 3.300781 10.496094 3.300781 C 10.671875 3.292969 10.839844 3.382812 10.933594 3.535156 C 11.035156 3.6875 11.085938 3.902344 11.085938 4.175781 C 11.085938 4.507812 11.03125 4.765625 10.917969 4.945312 C 10.824219 5.117188 10.644531 5.21875 10.449219 5.214844 C 10.285156 5.21875 10.128906 5.136719 10.035156 5.003906 C 9.925781 4.847656 9.871094 4.664062 9.878906 4.472656 Z M 9 12.769531 C 8.742188 12.921875 8.375 13 7.890625 13 C 7.328125 13 6.871094 12.820312 6.523438 12.46875 C 6.175781 12.113281 6 11.652344 6 11.09375 C 6 10.445312 6.1875 9.933594 6.558594 9.5625 C 6.933594 9.1875 7.433594 9 8.058594 9 C 8.492188 9 8.804688 9.058594 9 9.179688 L 9 10.175781 C 8.773438 9.996094 8.496094 9.898438 8.207031 9.902344 C 7.882812 9.902344 7.625 10 7.433594 10.199219 C 7.242188 10.394531 7.152344 10.667969 7.152344 11.015625 C 7.152344 11.351562 7.242188 11.617188 7.421875 11.8125 C 7.605469 12.003906 7.855469 12.097656 8.171875 12.097656 C 8.453125 12.097656 8.730469 12.007812 9 11.824219 Z M 4 7 L 3 8 L 3 14 L 4 15 L 11 15 L 12 14 L 12 8 L 11 7 Z M 4 8 L 11 8 L 11 14 L 4 14 Z M 4 8 "/>
</g>
</svg>
