<?xml version="1.0" encoding="UTF-8"?>
<svg xmlns="http://www.w3.org/2000/svg" xmlns:xlink="http://www.w3.org/1999/xlink" width="16px" height="16px" viewBox="0 0 16 16" version="1.1">
<g id="surface1">
<path style=" stroke:none;fill-rule:nonzero;fill:#3592C4;fill-opacity:1;" d="M 13.765625 2.746094 L 3.582031 2.746094 L 5.222656 1.105469 C 5.476562 0.851562 5.476562 0.441406 5.222656 0.1875 C 4.96875 -0.0625 4.558594 -0.0625 4.308594 0.1875 L 0.628906 3.867188 C 0.375 4.121094 0.375 4.53125 0.628906 4.78125 L 4.308594 8.460938 C 4.433594 8.589844 4.597656 8.652344 4.765625 8.652344 C 4.929688 8.652344 5.097656 8.589844 5.222656 8.460938 C 5.476562 8.210938 5.476562 7.800781 5.222656 7.546875 L 3.582031 5.90625 L 13.765625 5.90625 C 14.636719 5.90625 15.34375 5.199219 15.34375 4.324219 C 15.34375 3.453125 14.636719 2.746094 13.765625 2.746094 Z M 13.765625 2.746094 "/>
<path style=" stroke:none;fill-rule:nonzero;fill:#F0A732;fill-opacity:1;" d="M 15.371094 11.21875 L 11.691406 7.539062 C 11.441406 7.285156 11.03125 7.285156 10.777344 7.539062 C 10.523438 7.789062 10.523438 8.199219 10.777344 8.453125 L 12.417969 10.09375 L 2.234375 10.09375 C 1.363281 10.09375 0.65625 10.800781 0.65625 11.675781 C 0.65625 12.546875 1.363281 13.253906 2.234375 13.253906 L 12.417969 13.253906 L 10.777344 14.894531 C 10.523438 15.148438 10.523438 15.558594 10.777344 15.8125 C 10.902344 15.9375 11.070312 16 11.234375 16 C 11.398438 16 11.566406 15.9375 11.691406 15.8125 L 15.371094 12.132812 C 15.625 11.878906 15.625 11.46875 15.371094 11.21875 Z M 15.371094 11.21875 "/>
</g>
</svg>
